inDegrees=no
num_controls=7
num_derivatives=13
num_iterations=128
num_multipliers=7
num_parameters=0
num_slacks=7
num_states=26
objective=5.417725
objective_accelerations=0.526470
objective_balance=0.012354
objective_effort=0.420090
objective_height=4.435147
objective_ligament=0.023665
solver_duration=1113.391031
status=Solve_Succeeded
success=true
DataType=double
version=3
OpenSimVersion=4.4-2022-07-23-0e9fedc
endheader
time	/jointset/ground_pelvis/pelvis_tilt/value	/jointset/ground_pelvis/pelvis_tx/value	/jointset/ground_pelvis/pelvis_ty/value	/jointset/hip_r/hip_flexion_r/value	/jointset/hip_r/hip_adduction_r/value	/jointset/hip_r/hip_rotation_r/value	/jointset/back/lumbar_extension/value	/jointset/patellofemoral_r/patellar_flexion_r/value	/jointset/knee_r/knee_flexion_r/value	/jointset/knee_r/knee_adduction_r/value	/jointset/knee_r/knee_rotation_r/value	/jointset/ankle_r/ankle_angle_r/value	/jointset/subtalar_r/subtalar_angle_r/value	/jointset/ground_pelvis/pelvis_tilt/speed	/jointset/ground_pelvis/pelvis_tx/speed	/jointset/ground_pelvis/pelvis_ty/speed	/jointset/hip_r/hip_flexion_r/speed	/jointset/hip_r/hip_adduction_r/speed	/jointset/hip_r/hip_rotation_r/speed	/jointset/back/lumbar_extension/speed	/jointset/patellofemoral_r/patellar_flexion_r/speed	/jointset/knee_r/knee_flexion_r/speed	/jointset/knee_r/knee_adduction_r/speed	/jointset/knee_r/knee_rotation_r/speed	/jointset/ankle_r/ankle_angle_r/speed	/jointset/subtalar_r/subtalar_angle_r/speed	/forceset/tau_hip_flexion_r	/forceset/tau_hip_adduction_r	/forceset/tau_hip_rotation_r	/forceset/tau_knee_flexion_r	/forceset/tau_ankle_angle_r	/forceset/tau_subtalar_angle_r	/forceset/tau_lumbar_extension	lambda_cid13_p0	lambda_cid14_p0	lambda_cid14_p1	lambda_cid14_p2	lambda_cid14_p3	lambda_cid14_p4	lambda_cid14_p5	/jointset/ground_pelvis/pelvis_tilt/accel	/jointset/ground_pelvis/pelvis_tx/accel	/jointset/ground_pelvis/pelvis_ty/accel	/jointset/hip_r/hip_flexion_r/accel	/jointset/hip_r/hip_adduction_r/accel	/jointset/hip_r/hip_rotation_r/accel	/jointset/back/lumbar_extension/accel	/jointset/patellofemoral_r/patellar_flexion_r/accel	/jointset/knee_r/knee_flexion_r/accel	/jointset/knee_r/knee_adduction_r/accel	/jointset/knee_r/knee_rotation_r/accel	/jointset/ankle_r/ankle_angle_r/accel	/jointset/subtalar_r/subtalar_angle_r/accel	gamma_cid13_p0	gamma_cid14_p0	gamma_cid14_p1	gamma_cid14_p2	gamma_cid14_p3	gamma_cid14_p4	gamma_cid14_p5
0	-0.00378648815381306	0.1299445149739386	0.9337726591676718	0.1934208783645156	-0.2235843783544384	-0.2354618771907976	-0.2903791543005566	0.2311793314021514	0.2311793314021609	0.1231171769715377	0.1645175867500406	0.08934340440958972	0.0694750152360441	0	0	0	0	0	0	0	0	0	0	0	0	0	0.10489974901842	-0.06690047111738369	0.003033660335925077	-0.2464076003737577	0.1274246237121543	-0.07350146751577127	-0.02394487097820142	-29.63445866772833	-4.742751236651121	-28.28981757550958	-0.1649055556371604	-2.749319871575408	-613.0269180365289	54.34605531686255	-1.537356400059049	-1.635772389138005	-0.7752101009760887	8.987736041549251	0.1339726668877707	1.818782264888096	-6.053300468577832	9.53101813931346	9.531018139313769	-2.757762997658951	0.5059154729152507	2.768731803581611	0.9592545682577501	3.31000268231281e-08	1.978194483629692e-08	-2.460928059796826e-07	1.999501591802181e-07	9.363930954714159e-09	1.315257190128143e-07	-2.380068805477128e-07
0.01	-0.003857991777961673	0.1298638713150826	0.9337350274460202	0.1938585284605908	-0.223575575986985	-0.235371240751559	-0.2906829825636288	0.2316468136685573	0.2316468136685934	0.1229772239662586	0.164539620345991	0.08947983616943724	0.06952499735138264	-0.01424905561707787	-0.01603519146380602	-0.007503208242937444	0.08711911197782235	0.001762330856534229	0.0180472443593168	-0.06037076360498934	0.09305869320294335	0.09305869320293995	-0.02787646031042662	0.004359820168585665	0.02718179756025351	0.009970634263088186	0.1012366794426857	-0.07339570583920542	0.003350987817172539	-0.2432365989391581	0.1219899259928775	-0.06622792468760624	-0.02055641623485983	-29.63979250125481	-6.147570741042998	-25.20599680780036	-0.8517542229939644	-2.709126354750911	-614.5936568915415	60.51511622614188	-1.360931590249417	-1.573359604736202	-0.7343794677787133	8.51236277197385	0.1976403126158779	1.785729248392556	-5.969730956205001	9.127624278380974	9.127624278380338	-2.785486480291102	0.394019599676014	2.677225095757291	1.012084496750853	4.893339056907086e-08	1.34078776947395e-08	-3.392674917617924e-07	2.77200250174914e-07	2.652182069276037e-08	4.568296379408036e-08	-3.341208649864839e-07
0.02	-0.004070436247779939	0.1296256823256432	0.9336230629855748	0.1951550424756922	-0.2235490949073936	-0.2351025251233196	-0.2915786717926866	0.2330317487405389	0.2330317487405263	0.1225619265710058	0.1646038530057966	0.0898849501776086	0.06967390913763588	-0.02818816914291632	-0.03150906611667321	-0.01486654775873807	0.1717727837986809	0.003535742416338102	0.03561583779619219	-0.1183721931998739	0.1834905611097363	0.1834905611097311	-0.05506887792311967	0.008439812771008073	0.05373644966091774	0.01978593418284134	0.09757360986686539	-0.07989094056129001	0.003668315298238717	-0.2400655975046146	0.1165552282734834	-0.05895438185979951	-0.01716796149147729	-29.65530580986852	-7.478449586119015	-22.12585943721944	-1.519019779091803	-2.63341172822821	-614.9691281957332	66.40461434081094	-1.475367981811706	-1.52350902694975	-0.7472363555487527	8.494648010156446	0.1361888075417537	1.723052080399797	-5.579433666557229	9.005653080083293	9.005653080083921	-2.620954458112335	0.4499499596825446	2.643302711664302	0.9281876995909725	6.476675431501361e-08	7.03381055318209e-09	-4.324421775439023e-07	3.5445034116961e-07	4.367971043080658e-08	-4.015979142465361e-08	-4.30234849425255e-07
0.03	-0.004421057237617512	0.1292355564513895	0.9334378846581769	0.1972861920618649	-0.2235052759796223	-0.2346610950286738	-0.2930421247161199	0.2353081471402377	0.2353081471401857	0.1218790571647732	0.1647081333882709	0.09055238279417012	0.06991965096260364	-0.04188193807040315	-0.0464222475223152	-0.02216730166399671	0.2540448034143171	0.005201346101259399	0.05257988958026061	-0.1739221368881446	0.2713625706528086	0.2713625706528039	-0.08132507268112979	0.01237596872957488	0.07963929337951194	0.02930245974197958	0.09324977523061249	-0.07574330613668252	0.00390095269611738	-0.236702824244717	0.1130682937189124	-0.0594953459746031	-0.01337703242049271	-29.68031510011073	-8.634277101532822	-22.55244035959324	-1.463275247288798	-2.510299071189621	-615.4555924042728	64.66649874336588	-1.308264294838906	-1.461134709179321	-0.7212308783471955	8.031631504248816	0.177747284874386	1.669608154147976	-5.483336530926609	8.613979648180761	8.613979648180552	-2.600994442323057	0.3594728834852662	2.547164157724966	0.9543638384574662	6.423690260665008e-08	-2.515591722932877e-09	-4.085201376617456e-07	3.596837063795088e-07	5.035759515504693e-08	-1.226426525741072e-07	-4.272648884102404e-07
0.04	-0.0049069925060164	0.1286991163607188	0.9331797515976606	0.200227692357578	-0.2234456007878076	-0.234052719130863	-0.295049189438636	0.2384504665866604	0.2384504665866485	0.1209390173197237	0.1648505802242673	0.09147552163905598	0.07025875381404009	-0.05525102486290475	-0.06077190940008873	-0.02945749438240625	0.3338429257091765	0.006706995222368641	0.06900499843382923	-0.2270945530150709	0.3566747704663501	0.3566747704663491	-0.1065029657463174	0.01607310346979929	0.1048776953288409	0.03845813947643698	0.0889259405940865	-0.07159567171181411	0.004133590094226024	-0.2333400509849005	0.1095813591644149	-0.06003631008907018	-0.009586103349827466	-29.71374261816181	-9.722622501553094	-22.98390172586023	-1.387681488913449	-2.36093873261215	-614.8540662540742	62.66965257066465	-1.410431554815181	-1.410805121375645	-0.7451241181789572	7.999868546001069	0.1041978947794407	1.615263494299774	-5.10392815428871	8.493691134177086	8.493691134178311	-2.405294119548016	0.4021457160140113	2.510414357811738	0.8560185346550626	6.336966501263074e-08	-1.21304648265645e-08	-3.821837323019751e-07	3.634321906453911e-07	5.681939730168304e-08	-2.050562375571839e-07	-4.222519594477251e-07
0.05	-0.005525307148360235	0.1280218420271977	0.9328485456619193	0.2039555037244787	-0.2233717877524164	-0.2332834916925101	-0.2975761151949264	0.2424334606318728	0.2424334606318375	0.119752747904457	0.165029452371082	0.09264758284294809	0.07068745814667242	-0.06835025740928115	-0.07460348197176651	-0.0367967962442265	0.4113288341479993	0.00804846903646381	0.08473575283082597	-0.2779383053551482	0.4395071881528381	0.4395071881528423	-0.1306115066289363	0.01964823828157678	0.129413758766476	0.04724657203208762	0.08405501862049647	-0.0696407884141927	0.004431074112619244	-0.2296046893271467	0.1044191439700593	-0.05795114596860681	-0.005530547651494728	-29.75444732288071	-11.21892786635273	-22.29348323891888	-1.55123720640494	-1.910794899848482	-614.4779340466926	62.92461238926868	-1.250414988450445	-1.357400608114288	-0.7303404192010878	7.56437795382573	0.1480695013565088	1.536339816605381	-5.021754841540472	8.115476855328076	8.115476855328037	-2.392743766934776	0.3273026738128895	2.40708699463911	0.8848166402111062	5.765367877188185e-08	-1.961612534747877e-08	-3.19840514612781e-07	3.498782941230091e-07	5.735770926319547e-08	-2.654411300520557e-07	-3.88542019808278e-07
0.06	-0.006272763292913849	0.1272086385113506	0.9324435452677567	0.2084464593680017	-0.2232847705035396	-0.232360085029364	-0.3006009096881478	0.2472322708078346	0.2472322708078194	0.1183295711416443	0.1652424969279913	0.09406138161279148	0.07120295900970031	-0.08107932531184157	-0.08795774586526345	-0.04421638606664422	0.4864717810269074	0.009347837915806395	0.09984084339605155	-0.3266683004022209	0.5198379966170669	0.5198379966170721	-0.1538844352842368	0.022907585495488	0.1532252085201098	0.05581744555540005	0.07918409664702056	-0.06768590511649217	0.004728558130941398	-0.2258693276692829	0.09925692877577166	-0.05586598184802788	-0.00147499195313588	-29.80091073876333	-12.65374341049987	-21.60549964213715	-1.699325806669597	-1.446515400038747	-613.1251125524019	62.9570637367376	-1.336398626052434	-1.315343385739121	-0.7611817102984676	7.531276234018112	0.09577690782904855	1.490130727945457	-4.681176695688083	7.993369289725155	7.993369289725544	-2.238171674084586	0.3389881964407148	2.365491621011877	0.8125067281876998	5.173353469337595e-08	-2.701213481227864e-08	-2.559812206149795e-07	3.355958763042792e-07	5.764661111165006e-08	-3.248984986526873e-07	-3.536237849824338e-07
0.07000000000000001	-0.007146117177916137	0.1262643845620792	0.9319637575809142	0.213677505532127	-0.2231853592913675	-0.2312891721412754	-0.3041018311075377	0.2528220394541199	0.2528220394540597	0.1166786401297944	0.1654870823550072	0.09570967802540963	0.07180262853288948	-0.09353382836693286	-0.1008016776832116	-0.05176540593056188	0.559330637588064	0.01052091475285995	0.1142296447700169	-0.373147908261903	0.5976860543198885	0.5976860543198907	-0.1761421669619694	0.02595137959932257	0.1763163432987414	0.06407524694651012	0.07409332258682778	-0.06504406517666579	0.004973854349699628	-0.2228802013948389	0.09509746561476566	-0.05409490964883598	0.002778628789783332	-29.8515725496161	-13.80703263333718	-21.02921934721449	-1.801522001965835	-1.285309581331384	-612.190218881359	62.73355497361451	-1.191323158949139	-1.255201600294497	-0.7554660191763671	7.102171623225472	0.1260833933745398	1.396500862680767	-4.576141549854129	7.616061987863036	7.616061987862242	-2.195636900115531	0.2784177922260413	2.263263049431478	0.826236483346598	3.713192889553807e-08	-3.637862527868999e-08	-1.337761473151233e-07	2.678212783812198e-07	5.312867596903103e-08	-3.828001249814277e-07	-2.55407588904029e-07
